<?xml version="1.0" standalone="no"?>
<!DOCTYPE svg PUBLIC "-//W3C//DTD SVG 20010904//EN"
 "http://www.w3.org/TR/2001/REC-SVG-20010904/DTD/svg10.dtd">
<svg version="1.0" xmlns="http://www.w3.org/2000/svg"
 width="700.000000pt" height="700.000000pt" viewBox="0 0 700.000000 700.000000"
 preserveAspectRatio="xMidYMid meet">
<metadata>
Created by potrace 1.14, written by Peter Selinger 2001-2017
</metadata>
<g transform="translate(0.000000,700.000000) scale(0.100000,-0.100000)"
fill="#000000" stroke="none">
<path d="M1751 6808 c0 -126 4 -187 12 -197 9 -12 9 -13 -1 -7 -10 6 -12 -128
-11 -669 0 -372 -1 -678 -3 -681 -3 -2 -53 -4 -111 -5 -79 0 -105 -4 -101 -12
5 -8 2 -8 -7 1 -7 6 -33 12 -57 12 -32 0 -41 -3 -36 -12 6 -10 4 -10 -7 0 -7
6 -24 12 -37 12 -16 0 -21 -4 -16 -12 6 -10 5 -10 -7 -1 -20 16 -162 16 -153
0 5 -8 3 -8 -7 1 -7 6 -33 12 -57 12 -32 0 -41 -3 -36 -12 6 -10 4 -10 -7 0
-7 6 -24 12 -37 12 -16 0 -21 -4 -16 -12 6 -10 5 -10 -8 -1 -11 10 -132 13
-526 12 -282 -1 -512 -3 -512 -5 0 -11 469 -472 474 -467 3 4 6 1 6 -5 0 -17
492 -508 505 -504 5 2 7 1 3 -3 -8 -9 437 -455 453 -455 7 0 10 -3 6 -6 -3 -4
59 -71 139 -151 112 -111 144 -148 138 -161 -4 -9 -8 -20 -8 -24 -1 -3 -5 -10
-10 -15 -6 -5 -6 -2 -1 7 5 8 -18 -12 -50 -45 -33 -33 -59 -63 -57 -67 1 -5
-3 -8 -9 -8 -13 0 -635 -622 -631 -632 1 -5 -3 -8 -9 -8 -10 0 -949 -935 -949
-945 0 -11 254 -4 269 8 12 9 13 9 7 0 -5 -10 5 -13 39 -13 34 0 44 3 39 13
-6 9 -4 9 7 1 20 -16 128 -17 147 -2 12 10 14 10 8 1 -10 -18 214 -18 233 -1
11 10 13 10 7 1 -5 -10 5 -13 39 -13 34 0 44 3 39 13 -6 9 -4 9 7 1 20 -16
128 -17 147 -2 12 10 14 10 8 1 -10 -18 214 -18 233 0 11 9 13 9 7 0 -5 -10 5
-13 39 -13 34 0 44 3 39 13 -6 9 -4 9 7 1 20 -16 128 -17 147 -2 12 9 14 10 9
1 -6 -10 24 -13 128 -15 l136 -3 0 -867 c0 -478 2 -868 5 -868 3 0 41 36 85
80 49 49 78 84 73 91 -4 8 -3 9 4 5 16 -10 806 780 796 796 -4 7 -3 8 4 4 16
-10 426 400 416 416 -4 7 -3 8 4 4 8 -4 78 59 183 163 93 94 175 171 180 171
6 0 48 -38 93 -85 46 -46 86 -82 90 -78 3 3 6 1 6 -6 0 -15 146 -162 154 -154
3 4 6 1 6 -6 0 -15 466 -482 474 -474 3 4 6 1 6 -5 0 -17 492 -508 505 -504 5
2 7 1 3 -3 -6 -6 394 -415 407 -415 3 0 5 25 5 56 0 31 -4 53 -9 49 -5 -3 -13
-1 -16 5 -4 6 -1 9 7 8 9 -2 14 13 16 55 2 46 0 57 -10 51 -10 -6 -10 -5 -1 7
16 20 16 242 0 233 -8 -5 -8 -3 1 7 8 9 12 50 12 127 0 88 -3 112 -12 106 -10
-6 -10 -5 -1 7 16 20 16 242 0 233 -8 -5 -8 -3 1 7 8 9 12 50 12 127 0 88 -3
112 -12 106 -10 -6 -10 -5 -1 7 16 20 16 242 0 233 -8 -5 -8 -3 1 7 14 15 17
123 3 114 -5 -3 -13 -1 -16 5 -4 6 -1 9 7 8 9 -2 14 13 16 55 2 46 0 57 -10
51 -10 -5 -11 -4 0 7 6 7 12 26 12 41 0 28 0 28 68 28 41 0 73 5 81 13 11 10
13 10 7 0 -5 -10 5 -13 39 -13 34 0 44 3 39 12 -6 10 -4 10 7 2 20 -16 128
-17 147 -2 12 10 14 10 8 1 -6 -10 18 -13 106 -13 77 0 118 4 127 13 11 10 13
10 7 0 -5 -10 5 -13 39 -13 34 0 44 3 39 13 -6 9 -4 9 7 1 20 -16 128 -17 147
-2 12 10 14 10 8 1 -10 -18 214 -18 233 0 11 9 13 9 7 0 -5 -10 5 -13 39 -13
34 0 44 3 39 13 -6 9 -4 9 7 1 20 -16 128 -17 147 -2 12 10 14 10 8 1 -10 -18
214 -18 233 -1 9 9 12 9 7 1 -4 -8 8 -11 39 -11 31 0 43 3 39 11 -5 8 -2 8 7
-1 13 -12 59 -17 59 -6 0 13 -88 92 -96 86 -4 -4 -4 -2 -1 4 7 13 -16 37 -26
29 -4 -3 -5 -2 -3 1 3 3 -359 370 -804 814 -664 664 -806 811 -794 820 7 7 11
16 8 21 -3 5 0 9 6 9 20 0 422 409 414 422 -4 7 -3 8 5 4 15 -10 544 520 535
536 -4 7 -3 8 4 4 16 -9 646 620 636 635 -4 7 -3 9 4 5 9 -6 112 83 112 97 0
3 -315 6 -700 6 -537 0 -699 -3 -694 -12 5 -8 3 -8 -7 1 -7 6 -24 12 -37 12
-16 0 -21 -4 -16 -12 6 -10 4 -10 -8 0 -12 9 -51 13 -135 12 -65 -1 -124 -1
-130 -1 -8 1 -13 15 -13 37 0 21 -4 33 -10 29 -5 -3 -10 -1 -10 4 0 6 5 11 10
11 7 0 10 283 10 830 0 457 -3 830 -6 830 -10 0 -439 -435 -436 -442 1 -5 -3
-8 -9 -8 -13 0 -955 -942 -951 -952 1 -5 -3 -8 -9 -8 -5 0 -84 -74 -175 -165
l-164 -164 -473 472 c-259 259 -475 471 -479 470 -5 -2 -8 2 -8 7 0 10 -775
790 -785 790 -3 0 -5 -82 -4 -182z m3256 -363 c0 -8 -4 -15 -9 -15 -10 0 -11
14 -1 23 9 10 10 9 10 -8z m-3083 -11 c3 -8 2 -12 -4 -9 -6 3 -10 10 -10 16 0
14 7 11 14 -7z m282 -74 c0 -12 -4 -16 -9 -11 -5 5 -6 14 -3 20 10 15 12 14
12 -9z m-276 0 c0 -5 -2 -10 -4 -10 -3 0 -8 5 -11 10 -3 6 -1 10 4 10 6 0 11
-4 11 -10z m2800 -198 c0 -5 -7 -9 -15 -9 -8 0 -12 4 -9 9 3 4 9 8 15 8 5 0 9
-4 9 -8z m-2310 -76 c0 -2 -8 -10 -17 -17 -16 -13 -17 -12 -4 4 13 16 21 21
21 13z m-410 -328 c0 -4 -4 -8 -9 -8 -6 0 -12 4 -15 8 -3 5 1 9 9 9 8 0 15 -4
15 -9z m2880 -2 c-7 -7 -13 -7 -20 0 -6 6 -3 10 10 10 13 0 16 -4 10 -10z
m-2044 -36 c0 -12 -4 -16 -9 -11 -5 5 -6 14 -3 20 10 15 12 14 12 -9z m1568
-38 c2 -4 -4 -8 -14 -8 -10 0 -16 4 -14 8 3 4 9 8 14 8 5 0 11 -4 14 -8z
m-2127 -47 c0 -8 -4 -12 -9 -9 -4 3 -8 9 -8 15 0 5 4 9 8 9 5 0 9 -7 9 -15z
m1760 -150 c0 -8 -4 -15 -9 -15 -10 0 -11 14 -1 23 9 10 10 9 10 -8z m643 -84
c0 -6 -4 -12 -8 -15 -5 -3 -9 1 -9 9 0 8 4 15 9 15 4 0 8 -4 8 -9z m-2644 -81
c0 -12 -4 -16 -9 -11 -5 5 -6 14 -3 20 10 15 12 14 12 -9z m960 0 c0 -12 -4
-16 -9 -11 -5 5 -6 14 -3 20 10 15 12 14 12 -9z m1120 0 c0 -12 -4 -16 -9 -11
-5 5 -6 14 -3 20 10 15 12 14 12 -9z m320 0 c0 -12 -4 -16 -9 -11 -5 5 -6 14
-3 20 10 15 12 14 12 -9z m-2752 -198 c2 -4 -4 -8 -14 -8 -10 0 -16 4 -14 8 3
4 9 8 14 8 5 0 11 -4 14 -8z m3920 -80 c2 -4 -4 -8 -14 -8 -10 0 -16 4 -14 8
3 4 9 8 14 8 5 0 11 -4 14 -8z m-3884 -41 c0 -6 -4 -12 -8 -15 -5 -3 -9 1 -9
9 0 8 4 15 9 15 4 0 8 -4 8 -9z m-1124 -76 c-1 -8 -5 -17 -8 -21 -5 -4 -4 16
1 34 3 9 9 -1 7 -13z m240 -85 c0 -12 -4 -16 -9 -11 -5 5 -6 14 -3 20 10 15
12 14 12 -9z m-356 6 c0 -2 -7 -7 -16 -10 -8 -3 -12 -2 -9 4 6 10 25 14 25 6z
m884 -48 c-3 -4 -9 -8 -15 -8 -5 0 -9 4 -9 8 0 5 7 9 15 9 8 0 12 -4 9 -9z
m4881 -38 c3 -6 -1 -7 -9 -4 -18 7 -21 14 -7 14 6 0 13 -4 16 -10z m-5435 -34
c0 -2 -8 -10 -17 -17 -16 -13 -17 -12 -4 4 13 16 21 21 21 13z m5034 -4 c3 -5
-1 -9 -9 -9 -8 0 -15 4 -15 9 0 4 4 8 9 8 6 0 12 -4 15 -8z m-5204 -40 c0 -5
-7 -9 -15 -9 -8 0 -12 4 -9 9 3 4 9 8 15 8 5 0 9 -4 9 -8z m564 -120 c2 -4 -4
-8 -14 -8 -10 0 -16 4 -14 8 3 4 9 8 14 8 5 0 11 -4 14 -8z m276 -106 c0 -2
-8 -10 -17 -17 -16 -13 -17 -12 -4 4 13 16 21 21 21 13z m4124 -54 c2 -4 -4
-8 -14 -8 -10 0 -16 4 -14 8 3 4 9 8 14 8 5 0 11 -4 14 -8z m-3920 -80 c2 -4
-4 -8 -14 -8 -10 0 -16 4 -14 8 3 4 9 8 14 8 5 0 11 -4 14 -8z m-130 -132 c-6
-6 -10 -3 -10 10 0 13 4 16 10 10 7 -7 7 -13 0 -20z m-116 -155 c-3 -3 -9 2
-12 12 -6 14 -5 15 5 6 7 -7 10 -15 7 -18z m282 6 c0 -6 -4 -12 -8 -15 -5 -3
-9 1 -9 9 0 8 4 15 9 15 4 0 8 -4 8 -9z m-326 -91 c-6 -6 -10 -3 -10 10 0 13
4 16 10 10 7 -7 7 -13 0 -20z m290 -748 c2 -4 -4 -8 -14 -8 -10 0 -16 4 -14 8
3 4 9 8 14 8 5 0 11 -4 14 -8z m0 -480 c2 -4 -4 -8 -14 -8 -10 0 -16 4 -14 8
3 4 9 8 14 8 5 0 11 -4 14 -8z m3836 -6 c-7 -7 -13 -7 -20 0 -6 6 -3 10 10 10
13 0 16 -4 10 -10z m-4363 -111 c0 -8 -4 -15 -9 -15 -10 0 -11 14 -1 23 9 10
10 9 10 -8z m363 -49 c-7 -7 -13 -7 -20 0 -6 6 -3 10 10 10 13 0 16 -4 10 -10z
m4516 -36 c0 -12 -4 -16 -9 -11 -5 5 -6 14 -3 20 10 15 12 14 12 -9z m-276 0
c0 -5 -2 -10 -4 -10 -3 0 -8 5 -11 10 -3 6 -1 10 4 10 6 0 11 -4 11 -10z
m-4476 -38 c2 -4 -4 -8 -14 -8 -10 0 -16 4 -14 8 3 4 9 8 14 8 5 0 11 -4 14
-8z m4320 0 c2 -4 -4 -8 -14 -8 -10 0 -16 4 -14 8 3 4 9 8 14 8 5 0 11 -4 14
-8z m-3924 -82 c0 -5 -5 -10 -11 -10 -5 0 -7 5 -4 10 3 6 8 10 11 10 2 0 4 -4
4 -10z m-800 -78 c0 -5 -7 -9 -15 -9 -8 0 -12 4 -9 9 3 4 9 8 15 8 5 0 9 -4 9
-8z m391 -169 c13 -16 12 -17 -3 -4 -10 7 -18 15 -18 17 0 8 8 3 21 -13z m413
-71 c2 -4 -4 -8 -14 -8 -10 0 -16 4 -14 8 3 4 9 8 14 8 5 0 11 -4 14 -8z
m-644 -166 c-7 -7 -13 -7 -20 0 -6 6 -3 10 10 10 13 0 16 -4 10 -10z m480 0
c-7 -7 -13 -7 -20 0 -6 6 -3 10 10 10 13 0 16 -4 10 -10z m4320 2 c0 -4 -4 -8
-9 -8 -6 0 -12 4 -15 8 -3 5 1 9 9 9 8 0 15 -4 15 -9z m-2160 -272 c0 -2 -7
-7 -16 -10 -8 -3 -12 -2 -9 4 6 10 25 14 25 6z m-1835 -86 c3 -6 -1 -7 -9 -4
-18 7 -21 14 -7 14 6 0 13 -4 16 -10z m479 -38 c3 -5 -1 -9 -9 -9 -8 0 -15 4
-15 9 0 4 4 8 9 8 6 0 12 -4 15 -8z m1920 0 c3 -5 -1 -9 -9 -9 -8 0 -15 4 -15
9 0 4 4 8 9 8 6 0 12 -4 15 -8z m-404 -36 c0 -2 -7 -7 -16 -10 -8 -3 -12 -2
-9 4 6 10 25 14 25 6z m650 -40 c0 -2 -8 -10 -17 -17 -16 -13 -17 -12 -4 4 13
16 21 21 21 13z m-1616 -52 c3 -8 2 -12 -4 -9 -6 3 -10 10 -10 16 0 14 7 11
14 -7z m1130 -32 c2 -4 -4 -8 -14 -8 -10 0 -16 4 -14 8 3 4 9 8 14 8 5 0 11
-4 14 -8z m832 -42 c0 -12 -4 -16 -9 -11 -5 5 -6 14 -3 20 10 15 12 14 12 -9z
m-2751 -119 c-9 -8 -36 -10 -30 -2 2 4 11 8 20 8 8 0 13 -3 10 -6z m2351 -116
c-1 -8 -5 -17 -8 -21 -5 -4 -4 16 1 34 3 9 9 -1 7 -13z m-2000 -85 c0 -12 -4
-16 -9 -11 -5 5 -6 14 -3 20 10 15 12 14 12 -9z m2240 0 c0 -12 -4 -16 -9 -11
-5 5 -6 14 -3 20 10 15 12 14 12 -9z m-356 6 c0 -2 -7 -7 -16 -10 -8 -3 -12
-2 -9 4 6 10 25 14 25 6z m330 -120 c0 -2 -8 -10 -17 -17 -16 -13 -17 -12 -4
4 13 16 21 21 21 13z m-170 -44 c0 -5 -7 -9 -15 -9 -8 0 -12 4 -9 9 3 4 9 8
15 8 5 0 9 -4 9 -8z m564 -120 c2 -4 -4 -8 -14 -8 -10 0 -16 4 -14 8 3 4 9 8
14 8 5 0 11 -4 14 -8z m-2969 -111 c3 -5 2 -12 -3 -15 -5 -3 -9 1 -9 9 0 17 3
19 12 6z"/>
</g>
</svg>
